<?xml version="1.0" standalone="no"?>
<!DOCTYPE svg PUBLIC "-//W3C//DTD SVG 20010904//EN"
 "http://www.w3.org/TR/2001/REC-SVG-20010904/DTD/svg10.dtd">
<svg version="1.0" xmlns="http://www.w3.org/2000/svg"
 width="500.000000pt" height="500.000000pt" viewBox="0 0 500.000000 500.000000"
 preserveAspectRatio="xMidYMid meet">

<g transform="translate(0.000000,500.000000) scale(0.100000,-0.100000)"
fill="#000000" stroke="none">
<path d="M2807 4383 c-4 -3 -7 -11 -7 -17 0 -6 5 -5 12 2 6 6 9 14 7 17 -3 3
-9 2 -12 -2z"/>
<path d="M2735 4370 c-3 -5 -1 -10 4 -10 6 0 11 5 11 10 0 6 -2 10 -4 10 -3 0
-8 -4 -11 -10z"/>
<path d="M2822 4330 c0 -19 2 -27 5 -17 2 9 2 25 0 35 -3 9 -5 1 -5 -18z"/>
<path d="M2397 4199 c7 -7 15 -10 18 -7 3 3 -2 9 -12 12 -14 6 -15 5 -6 -5z"/>
<path d="M2450 4174 c0 -17 28 -37 41 -29 6 4 3 -5 -7 -21 -14 -22 -15 -26 -3
-17 9 7 29 10 51 7 30 -5 35 -10 31 -28 -4 -17 -3 -18 6 -6 8 12 13 12 23 2 6
-6 21 -12 31 -12 17 0 18 2 6 16 -10 12 -10 17 0 23 18 12 -31 41 -69 41 -22
0 -30 -5 -30 -17 0 -14 -3 -13 -16 5 -8 12 -12 27 -9 32 3 6 1 10 -4 10 -6 0
-11 -7 -11 -15 0 -20 -17 -19 -29 3 -6 9 -11 12 -11 6z"/>
<path d="M2441 3949 c-105 -14 -113 -21 -56 -49 45 -22 55 -23 229 -18 127 4
191 9 211 19 65 32 20 46 -175 53 -74 3 -169 0 -209 -5z m189 -27 c0 -11 -39
-12 -45 -1 -4 5 5 9 19 9 14 0 26 -4 26 -8z"/>
<path d="M1306 3901 c3 -13 7 -54 9 -92 2 -56 0 -69 -12 -69 -9 0 -13 -6 -9
-15 3 -9 0 -15 -8 -15 -9 0 -12 -9 -8 -26 l5 -25 18 28 c42 63 48 175 13 219
-14 18 -15 18 -8 -5z"/>
<path d="M1073 3833 c-1 -15 1 -22 4 -15 7 17 23 5 23 -19 0 -10 6 -19 14 -19
17 0 29 42 15 51 -6 3 -10 10 -10 15 1 5 -9 10 -21 12 -20 2 -24 -2 -25 -25z"/>
<path d="M990 3800 c0 -14 7 -36 16 -48 8 -12 12 -22 8 -22 -13 0 47 -54 63
-56 9 -2 22 4 30 12 8 8 11 14 7 14 -3 0 -1 7 6 15 11 13 7 15 -30 15 -46 0
-60 11 -85 65 -14 30 -14 30 -15 5z"/>
<path d="M956 3686 c-12 -65 5 -85 85 -100 28 -5 39 -2 54 14 18 20 18 20 -15
20 -25 0 -42 10 -76 44 -40 40 -45 42 -48 22z"/>
<path d="M1508 3649 c-28 -14 -35 -23 -31 -39 3 -11 1 -20 -5 -20 -6 0 -12 7
-14 15 -2 12 -20 4 -72 -31 -80 -54 -228 -193 -206 -194 15 0 104 56 250 158
113 80 168 157 78 111z m-248 -199 c-6 -11 -16 -20 -22 -20 -6 0 -3 9 7 20 10
11 20 20 22 20 2 0 -1 -9 -7 -20z"/>
<path d="M3690 3413 c18 -32 46 -75 63 -96 26 -33 32 -36 39 -22 13 23 2 51
-15 37 -16 -14 -38 17 -31 44 6 22 -50 94 -73 94 -11 0 -7 -13 17 -57z"/>
<path d="M3834 3263 c4 -6 -1 -13 -10 -15 -14 -3 -13 -6 6 -28 l22 -25 -6 25
-5 25 19 -25 c18 -23 25 -43 21 -64 -2 -12 48 -76 60 -76 14 0 0 50 -26 90
-24 36 -91 114 -81 93z"/>
<path d="M4211 3169 c-66 -48 -76 -58 -36 -35 31 18 104 76 95 75 -3 0 -30
-18 -59 -40z"/>
<path d="M4122 2599 c-1 -15 -5 -42 -8 -60 -4 -28 -3 -31 6 -16 6 9 9 36 7 60
-2 23 -4 30 -5 16z"/>
<path d="M1045 1590 c27 -12 43 -12 25 0 -8 5 -22 9 -30 9 -10 0 -8 -3 5 -9z"/>
<path d="M2296 668 c3 -5 10 -6 15 -3 13 9 11 12 -6 12 -8 0 -12 -4 -9 -9z"/>
<path d="M2338 603 c7 -3 16 -2 19 1 4 3 -2 6 -13 5 -11 0 -14 -3 -6 -6z"/>
<path d="M2297 592 c-15 -3 -15 -7 -1 -40 51 -124 223 -179 323 -105 29 23 40
46 17 37 -12 -5 -15 -2 -10 10 3 9 15 16 25 16 12 0 16 -5 13 -15 -4 -8 -2
-15 4 -15 11 0 27 47 23 69 -1 7 2 11 6 8 5 -3 9 3 10 12 1 16 -3 17 -33 11
-19 -4 -34 -6 -34 -3 0 3 -6 0 -14 -7 -8 -6 -12 -19 -9 -27 5 -12 2 -15 -10
-10 -8 3 -17 1 -20 -6 -2 -8 -35 -12 -98 -12 -52 0 -100 -4 -108 -9 -12 -8
-13 -3 -7 25 14 60 13 61 -25 63 -20 0 -43 0 -52 -2z m43 -32 c0 -5 -2 -10 -4
-10 -3 0 -8 5 -11 10 -3 6 -1 10 4 10 6 0 11 -4 11 -10z"/>
<path d="M2450 590 c-13 -8 -12 -10 3 -10 10 0 16 -4 13 -9 -4 -5 5 -8 19 -6
14 1 25 -1 25 -6 0 -10 32 -4 59 11 12 6 21 12 21 13 0 1 -22 1 -50 0 -27 0
-50 3 -50 8 0 12 -21 11 -40 -1z"/>
</g>
</svg>
