<?xml version="1.0" standalone="no"?>
<!DOCTYPE svg PUBLIC "-//W3C//DTD SVG 20010904//EN"
 "http://www.w3.org/TR/2001/REC-SVG-20010904/DTD/svg10.dtd">
<svg version="1.0" xmlns="http://www.w3.org/2000/svg"
 width="1200.000000pt" height="1200.000000pt" viewBox="0 0 1200.000000 1200.000000"
 preserveAspectRatio="xMidYMid meet">

<g transform="translate(0.000000,1200.000000) scale(0.100000,-0.100000)"
fill="#000000" stroke="none">
<path d="M6275 10069 c-105 -13 -234 -53 -332 -103 -99 -49 -133 -80 -162
-146 -12 -27 -69 -308 -141 -698 -110 -599 -123 -659 -159 -741 -179 -412
-574 -894 -1104 -1347 l-109 -94 -29 44 c-65 97 -169 171 -286 201 -85 22
-1581 22 -1666 0 -173 -45 -307 -179 -352 -350 -13 -52 -15 -269 -15 -1795 0
-1506 2 -1743 15 -1793 47 -179 198 -323 374 -357 72 -13 1549 -14 1622 0 91
17 190 72 255 142 62 67 113 163 121 229 3 22 11 43 18 46 17 6 139 -46 355
-150 355 -171 520 -234 687 -262 87 -14 235 -16 1338 -13 l1240 3 79 23 c275
78 504 281 587 522 18 51 23 88 23 175 1 61 -2 122 -7 137 -7 26 -3 29 75 70
159 82 277 199 349 343 55 111 72 202 66 340 -5 94 -34 245 -61 315 -4 10 8
25 34 43 129 91 239 234 286 372 22 63 27 99 28 170 0 110 -17 174 -85 310
l-49 100 87 90 c233 240 300 531 192 821 -84 224 -298 383 -614 457 -87 20
-118 21 -996 24 l-906 4 38 156 c93 381 123 648 123 1078 0 339 -9 481 -45
725 -81 536 -281 857 -568 910 -63 12 -207 11 -306 -1z m240 -500 c95 -114
169 -434 195 -839 29 -471 -5 -802 -136 -1342 l-46 -188 -40 0 c-145 0 -248
-100 -248 -240 0 -106 71 -205 162 -228 35 -9 344 -12 1173 -12 1220 0 1207 1
1329 -54 128 -58 188 -134 189 -239 0 -130 -45 -209 -174 -305 -178 -133 -195
-153 -186 -228 3 -33 21 -66 77 -144 93 -129 113 -180 114 -290 1 -143 -39
-199 -220 -306 -126 -74 -171 -115 -185 -167 -16 -61 -5 -118 47 -230 70 -154
93 -302 59 -384 -39 -93 -107 -145 -300 -227 -70 -30 -138 -64 -151 -77 -48
-45 -52 -96 -24 -294 16 -116 13 -184 -11 -233 -27 -54 -92 -103 -179 -134
l-65 -23 -1180 -3 c-821 -2 -1206 0 -1265 8 -128 17 -239 59 -530 200 -275
133 -444 206 -542 235 l-58 16 0 1258 0 1258 188 151 c549 440 935 846 1192
1254 130 207 280 533 280 608 0 27 209 1202 214 1208 8 7 131 20 208 21 85 1
87 1 113 -30z m-2675 -4529 l0 -1680 -720 0 -720 0 0 1680 0 1680 720 0 720 0
0 -1680z"/>
</g>
</svg>
