<?xml version="1.0" standalone="no"?>
<!DOCTYPE svg PUBLIC "-//W3C//DTD SVG 20010904//EN"
 "http://www.w3.org/TR/2001/REC-SVG-20010904/DTD/svg10.dtd">
<svg version="1.0" xmlns="http://www.w3.org/2000/svg"
 width="500.000000pt" height="500.000000pt" viewBox="0 0 500.000000 500.000000"
 preserveAspectRatio="xMidYMid meet">

<g transform="translate(0.000000,500.000000) scale(0.100000,-0.100000)"
fill="#000000" stroke="none">
<path d="M2565 4268 c-96 -34 -128 -92 -131 -238 -3 -152 -16 -184 -166 -407
-145 -216 -202 -285 -250 -303 -87 -32 -111 -46 -148 -86 -21 -23 -44 -60 -50
-83 -7 -27 -10 -252 -8 -718 l3 -678 27 -46 c32 -54 86 -94 148 -108 60 -14
1218 -15 1290 -1 76 14 136 48 186 103 58 65 78 127 72 231 l-5 81 43 48 c71
79 101 193 74 285 -8 31 -6 36 26 64 75 66 113 178 94 278 l-10 54 39 40 c67
71 86 118 86 221 0 81 -3 95 -29 143 -33 60 -76 101 -139 134 -41 22 -51 23
-386 26 l-343 3 5 22 c2 12 16 67 30 122 37 142 49 225 50 345 1 259 -97 413
-297 466 -60 16 -168 17 -211 2z m202 -113 c29 -9 69 -32 95 -55 130 -114 138
-358 24 -733 -28 -91 -34 -122 -26 -137 10 -19 23 -20 366 -20 228 0 371 -4
399 -11 56 -14 130 -77 145 -125 19 -56 8 -136 -23 -182 -31 -43 -92 -82 -131
-82 -33 0 -33 -5 3 -46 28 -31 51 -88 51 -124 0 -92 -102 -199 -190 -200 -25
0 -25 0 7 -25 68 -54 82 -177 29 -253 -28 -42 -81 -76 -134 -87 l-34 -7 30
-32 c43 -45 52 -68 52 -132 0 -75 -33 -133 -98 -171 l-47 -28 -627 -3 c-693
-3 -679 -4 -718 60 -19 32 -20 49 -20 694 l0 661 23 34 c17 25 38 39 82 55
106 37 177 115 373 412 119 179 145 251 146 405 1 95 2 100 29 123 23 19 39
24 86 24 31 0 80 -7 108 -15z"/>
<path d="M945 3256 c-37 -17 -80 -62 -94 -99 -8 -19 -11 -262 -11 -741 l0
-712 29 -45 c50 -80 67 -84 363 -87 285 -3 318 1 375 51 66 58 63 25 63 802 0
673 -1 708 -19 743 -22 42 -43 63 -88 86 -27 14 -73 16 -310 16 -210 -1 -285
-4 -308 -14z m490 -1310 c40 -17 65 -60 65 -112 0 -51 -53 -104 -104 -104
-107 0 -163 113 -94 188 40 43 78 51 133 28z"/>
</g>
</svg>
